<?xml version="1.0" encoding="utf-8" standalone="no"?>
<!DOCTYPE svg PUBLIC "-//W3C//DTD SVG 1.1//EN"
  "http://www.w3.org/Graphics/SVG/1.1/DTD/svg11.dtd">
<!-- Created with matplotlib (http://matplotlib.org/) -->
<svg height="288pt" version="1.1" viewBox="0 0 1152 288" width="1152pt" xmlns="http://www.w3.org/2000/svg" xmlns:xlink="http://www.w3.org/1999/xlink">
 <defs>
  <style type="text/css">
*{stroke-linecap:butt;stroke-linejoin:round;}
  </style>
 </defs>
 <g id="figure_1">
  <g id="patch_1">
   <path d="M 0 288 
L 1152 288 
L 1152 0 
L 0 0 
z
" style="fill:#ffffff;"/>
  </g>
  <g id="axes_1">
   <g id="patch_2">
    <path d="M 144 252 
L 338.086957 252 
L 338.086957 34.56 
L 144 34.56 
z
" style="fill:#ffffff;"/>
   </g>
   <g id="matplotlib.axis_1">
    <g id="xtick_1">
     <g id="line2d_1">
      <defs>
       <path d="M 0 0 
L 0 3.5 
" id="m8198fdd103" style="stroke:#000000;stroke-width:0.8;"/>
      </defs>
      <g>
       <use style="stroke:#000000;stroke-width:0.8;" x="152.822134" xlink:href="#m8198fdd103" y="252"/>
      </g>
     </g>
     <g id="text_1">
      <!-- 1 -->
      <defs>
       <path d="M 12.40625 8.296875 
L 28.515625 8.296875 
L 28.515625 63.921875 
L 10.984375 60.40625 
L 10.984375 69.390625 
L 28.421875 72.90625 
L 38.28125 72.90625 
L 38.28125 8.296875 
L 54.390625 8.296875 
L 54.390625 0 
L 12.40625 0 
z
" id="DejaVuSans-31"/>
      </defs>
      <g transform="translate(148.368384 269.637812)scale(0.14 -0.14)">
       <use xlink:href="#DejaVuSans-31"/>
      </g>
     </g>
    </g>
    <g id="xtick_2">
     <g id="line2d_2">
      <g>
       <use style="stroke:#000000;stroke-width:0.8;" x="172.426877" xlink:href="#m8198fdd103" y="252"/>
      </g>
     </g>
     <g id="text_2">
      <!-- 2 -->
      <defs>
       <path d="M 19.1875 8.296875 
L 53.609375 8.296875 
L 53.609375 0 
L 7.328125 0 
L 7.328125 8.296875 
Q 12.9375 14.109375 22.625 23.890625 
Q 32.328125 33.6875 34.8125 36.53125 
Q 39.546875 41.84375 41.421875 45.53125 
Q 43.3125 49.21875 43.3125 52.78125 
Q 43.3125 58.59375 39.234375 62.25 
Q 35.15625 65.921875 28.609375 65.921875 
Q 23.96875 65.921875 18.8125 64.3125 
Q 13.671875 62.703125 7.8125 59.421875 
L 7.8125 69.390625 
Q 13.765625 71.78125 18.9375 73 
Q 24.125 74.21875 28.421875 74.21875 
Q 39.75 74.21875 46.484375 68.546875 
Q 53.21875 62.890625 53.21875 53.421875 
Q 53.21875 48.921875 51.53125 44.890625 
Q 49.859375 40.875 45.40625 35.40625 
Q 44.1875 33.984375 37.640625 27.21875 
Q 31.109375 20.453125 19.1875 8.296875 
z
" id="DejaVuSans-32"/>
      </defs>
      <g transform="translate(167.973127 269.637812)scale(0.14 -0.14)">
       <use xlink:href="#DejaVuSans-32"/>
      </g>
     </g>
    </g>
    <g id="xtick_3">
     <g id="line2d_3">
      <g>
       <use style="stroke:#000000;stroke-width:0.8;" x="192.031621" xlink:href="#m8198fdd103" y="252"/>
      </g>
     </g>
     <g id="text_3">
      <!-- 3 -->
      <defs>
       <path d="M 40.578125 39.3125 
Q 47.65625 37.796875 51.625 33 
Q 55.609375 28.21875 55.609375 21.1875 
Q 55.609375 10.40625 48.1875 4.484375 
Q 40.765625 -1.421875 27.09375 -1.421875 
Q 22.515625 -1.421875 17.65625 -0.515625 
Q 12.796875 0.390625 7.625 2.203125 
L 7.625 11.71875 
Q 11.71875 9.328125 16.59375 8.109375 
Q 21.484375 6.890625 26.8125 6.890625 
Q 36.078125 6.890625 40.9375 10.546875 
Q 45.796875 14.203125 45.796875 21.1875 
Q 45.796875 27.640625 41.28125 31.265625 
Q 36.765625 34.90625 28.71875 34.90625 
L 20.21875 34.90625 
L 20.21875 43.015625 
L 29.109375 43.015625 
Q 36.375 43.015625 40.234375 45.921875 
Q 44.09375 48.828125 44.09375 54.296875 
Q 44.09375 59.90625 40.109375 62.90625 
Q 36.140625 65.921875 28.71875 65.921875 
Q 24.65625 65.921875 20.015625 65.03125 
Q 15.375 64.15625 9.8125 62.3125 
L 9.8125 71.09375 
Q 15.4375 72.65625 20.34375 73.4375 
Q 25.25 74.21875 29.59375 74.21875 
Q 40.828125 74.21875 47.359375 69.109375 
Q 53.90625 64.015625 53.90625 55.328125 
Q 53.90625 49.265625 50.4375 45.09375 
Q 46.96875 40.921875 40.578125 39.3125 
z
" id="DejaVuSans-33"/>
      </defs>
      <g transform="translate(187.577871 269.637812)scale(0.14 -0.14)">
       <use xlink:href="#DejaVuSans-33"/>
      </g>
     </g>
    </g>
    <g id="xtick_4">
     <g id="line2d_4">
      <g>
       <use style="stroke:#000000;stroke-width:0.8;" x="211.636364" xlink:href="#m8198fdd103" y="252"/>
      </g>
     </g>
     <g id="text_4">
      <!-- 4 -->
      <defs>
       <path d="M 37.796875 64.3125 
L 12.890625 25.390625 
L 37.796875 25.390625 
z
M 35.203125 72.90625 
L 47.609375 72.90625 
L 47.609375 25.390625 
L 58.015625 25.390625 
L 58.015625 17.1875 
L 47.609375 17.1875 
L 47.609375 0 
L 37.796875 0 
L 37.796875 17.1875 
L 4.890625 17.1875 
L 4.890625 26.703125 
z
" id="DejaVuSans-34"/>
      </defs>
      <g transform="translate(207.182614 269.637812)scale(0.14 -0.14)">
       <use xlink:href="#DejaVuSans-34"/>
      </g>
     </g>
    </g>
    <g id="xtick_5">
     <g id="line2d_5">
      <g>
       <use style="stroke:#000000;stroke-width:0.8;" x="231.241107" xlink:href="#m8198fdd103" y="252"/>
      </g>
     </g>
     <g id="text_5">
      <!-- 5 -->
      <defs>
       <path d="M 10.796875 72.90625 
L 49.515625 72.90625 
L 49.515625 64.59375 
L 19.828125 64.59375 
L 19.828125 46.734375 
Q 21.96875 47.46875 24.109375 47.828125 
Q 26.265625 48.1875 28.421875 48.1875 
Q 40.625 48.1875 47.75 41.5 
Q 54.890625 34.8125 54.890625 23.390625 
Q 54.890625 11.625 47.5625 5.09375 
Q 40.234375 -1.421875 26.90625 -1.421875 
Q 22.3125 -1.421875 17.546875 -0.640625 
Q 12.796875 0.140625 7.71875 1.703125 
L 7.71875 11.625 
Q 12.109375 9.234375 16.796875 8.0625 
Q 21.484375 6.890625 26.703125 6.890625 
Q 35.15625 6.890625 40.078125 11.328125 
Q 45.015625 15.765625 45.015625 23.390625 
Q 45.015625 31 40.078125 35.4375 
Q 35.15625 39.890625 26.703125 39.890625 
Q 22.75 39.890625 18.8125 39.015625 
Q 14.890625 38.140625 10.796875 36.28125 
z
" id="DejaVuSans-35"/>
      </defs>
      <g transform="translate(226.787357 269.637812)scale(0.14 -0.14)">
       <use xlink:href="#DejaVuSans-35"/>
      </g>
     </g>
    </g>
    <g id="xtick_6">
     <g id="line2d_6">
      <g>
       <use style="stroke:#000000;stroke-width:0.8;" x="250.84585" xlink:href="#m8198fdd103" y="252"/>
      </g>
     </g>
     <g id="text_6">
      <!-- 6 -->
      <defs>
       <path d="M 33.015625 40.375 
Q 26.375 40.375 22.484375 35.828125 
Q 18.609375 31.296875 18.609375 23.390625 
Q 18.609375 15.53125 22.484375 10.953125 
Q 26.375 6.390625 33.015625 6.390625 
Q 39.65625 6.390625 43.53125 10.953125 
Q 47.40625 15.53125 47.40625 23.390625 
Q 47.40625 31.296875 43.53125 35.828125 
Q 39.65625 40.375 33.015625 40.375 
z
M 52.59375 71.296875 
L 52.59375 62.3125 
Q 48.875 64.0625 45.09375 64.984375 
Q 41.3125 65.921875 37.59375 65.921875 
Q 27.828125 65.921875 22.671875 59.328125 
Q 17.53125 52.734375 16.796875 39.40625 
Q 19.671875 43.65625 24.015625 45.921875 
Q 28.375 48.1875 33.59375 48.1875 
Q 44.578125 48.1875 50.953125 41.515625 
Q 57.328125 34.859375 57.328125 23.390625 
Q 57.328125 12.15625 50.6875 5.359375 
Q 44.046875 -1.421875 33.015625 -1.421875 
Q 20.359375 -1.421875 13.671875 8.265625 
Q 6.984375 17.96875 6.984375 36.375 
Q 6.984375 53.65625 15.1875 63.9375 
Q 23.390625 74.21875 37.203125 74.21875 
Q 40.921875 74.21875 44.703125 73.484375 
Q 48.484375 72.75 52.59375 71.296875 
z
" id="DejaVuSans-36"/>
      </defs>
      <g transform="translate(246.3921 269.637812)scale(0.14 -0.14)">
       <use xlink:href="#DejaVuSans-36"/>
      </g>
     </g>
    </g>
    <g id="xtick_7">
     <g id="line2d_7">
      <g>
       <use style="stroke:#000000;stroke-width:0.8;" x="270.450593" xlink:href="#m8198fdd103" y="252"/>
      </g>
     </g>
     <g id="text_7">
      <!-- 7 -->
      <defs>
       <path d="M 8.203125 72.90625 
L 55.078125 72.90625 
L 55.078125 68.703125 
L 28.609375 0 
L 18.3125 0 
L 43.21875 64.59375 
L 8.203125 64.59375 
z
" id="DejaVuSans-37"/>
      </defs>
      <g transform="translate(265.996843 269.637812)scale(0.14 -0.14)">
       <use xlink:href="#DejaVuSans-37"/>
      </g>
     </g>
    </g>
    <g id="xtick_8">
     <g id="line2d_8">
      <g>
       <use style="stroke:#000000;stroke-width:0.8;" x="290.055336" xlink:href="#m8198fdd103" y="252"/>
      </g>
     </g>
     <g id="text_8">
      <!-- 8 -->
      <defs>
       <path d="M 31.78125 34.625 
Q 24.75 34.625 20.71875 30.859375 
Q 16.703125 27.09375 16.703125 20.515625 
Q 16.703125 13.921875 20.71875 10.15625 
Q 24.75 6.390625 31.78125 6.390625 
Q 38.8125 6.390625 42.859375 10.171875 
Q 46.921875 13.96875 46.921875 20.515625 
Q 46.921875 27.09375 42.890625 30.859375 
Q 38.875 34.625 31.78125 34.625 
z
M 21.921875 38.8125 
Q 15.578125 40.375 12.03125 44.71875 
Q 8.5 49.078125 8.5 55.328125 
Q 8.5 64.0625 14.71875 69.140625 
Q 20.953125 74.21875 31.78125 74.21875 
Q 42.671875 74.21875 48.875 69.140625 
Q 55.078125 64.0625 55.078125 55.328125 
Q 55.078125 49.078125 51.53125 44.71875 
Q 48 40.375 41.703125 38.8125 
Q 48.828125 37.15625 52.796875 32.3125 
Q 56.78125 27.484375 56.78125 20.515625 
Q 56.78125 9.90625 50.3125 4.234375 
Q 43.84375 -1.421875 31.78125 -1.421875 
Q 19.734375 -1.421875 13.25 4.234375 
Q 6.78125 9.90625 6.78125 20.515625 
Q 6.78125 27.484375 10.78125 32.3125 
Q 14.796875 37.15625 21.921875 38.8125 
z
M 18.3125 54.390625 
Q 18.3125 48.734375 21.84375 45.5625 
Q 25.390625 42.390625 31.78125 42.390625 
Q 38.140625 42.390625 41.71875 45.5625 
Q 45.3125 48.734375 45.3125 54.390625 
Q 45.3125 60.0625 41.71875 63.234375 
Q 38.140625 66.40625 31.78125 66.40625 
Q 25.390625 66.40625 21.84375 63.234375 
Q 18.3125 60.0625 18.3125 54.390625 
z
" id="DejaVuSans-38"/>
      </defs>
      <g transform="translate(285.601586 269.637812)scale(0.14 -0.14)">
       <use xlink:href="#DejaVuSans-38"/>
      </g>
     </g>
    </g>
    <g id="xtick_9">
     <g id="line2d_9">
      <g>
       <use style="stroke:#000000;stroke-width:0.8;" x="309.660079" xlink:href="#m8198fdd103" y="252"/>
      </g>
     </g>
     <g id="text_9">
      <!-- 9 -->
      <defs>
       <path d="M 10.984375 1.515625 
L 10.984375 10.5 
Q 14.703125 8.734375 18.5 7.8125 
Q 22.3125 6.890625 25.984375 6.890625 
Q 35.75 6.890625 40.890625 13.453125 
Q 46.046875 20.015625 46.78125 33.40625 
Q 43.953125 29.203125 39.59375 26.953125 
Q 35.25 24.703125 29.984375 24.703125 
Q 19.046875 24.703125 12.671875 31.3125 
Q 6.296875 37.9375 6.296875 49.421875 
Q 6.296875 60.640625 12.9375 67.421875 
Q 19.578125 74.21875 30.609375 74.21875 
Q 43.265625 74.21875 49.921875 64.515625 
Q 56.59375 54.828125 56.59375 36.375 
Q 56.59375 19.140625 48.40625 8.859375 
Q 40.234375 -1.421875 26.421875 -1.421875 
Q 22.703125 -1.421875 18.890625 -0.6875 
Q 15.09375 0.046875 10.984375 1.515625 
z
M 30.609375 32.421875 
Q 37.25 32.421875 41.125 36.953125 
Q 45.015625 41.5 45.015625 49.421875 
Q 45.015625 57.28125 41.125 61.84375 
Q 37.25 66.40625 30.609375 66.40625 
Q 23.96875 66.40625 20.09375 61.84375 
Q 16.21875 57.28125 16.21875 49.421875 
Q 16.21875 41.5 20.09375 36.953125 
Q 23.96875 32.421875 30.609375 32.421875 
z
" id="DejaVuSans-39"/>
      </defs>
      <g transform="translate(305.206329 269.637812)scale(0.14 -0.14)">
       <use xlink:href="#DejaVuSans-39"/>
      </g>
     </g>
    </g>
    <g id="xtick_10">
     <g id="line2d_10">
      <g>
       <use style="stroke:#000000;stroke-width:0.8;" x="329.264822" xlink:href="#m8198fdd103" y="252"/>
      </g>
     </g>
     <g id="text_10">
      <!-- 10 -->
      <defs>
       <path d="M 31.78125 66.40625 
Q 24.171875 66.40625 20.328125 58.90625 
Q 16.5 51.421875 16.5 36.375 
Q 16.5 21.390625 20.328125 13.890625 
Q 24.171875 6.390625 31.78125 6.390625 
Q 39.453125 6.390625 43.28125 13.890625 
Q 47.125 21.390625 47.125 36.375 
Q 47.125 51.421875 43.28125 58.90625 
Q 39.453125 66.40625 31.78125 66.40625 
z
M 31.78125 74.21875 
Q 44.046875 74.21875 50.515625 64.515625 
Q 56.984375 54.828125 56.984375 36.375 
Q 56.984375 17.96875 50.515625 8.265625 
Q 44.046875 -1.421875 31.78125 -1.421875 
Q 19.53125 -1.421875 13.0625 8.265625 
Q 6.59375 17.96875 6.59375 36.375 
Q 6.59375 54.828125 13.0625 64.515625 
Q 19.53125 74.21875 31.78125 74.21875 
z
" id="DejaVuSans-30"/>
      </defs>
      <g transform="translate(320.357322 269.637812)scale(0.14 -0.14)">
       <use xlink:href="#DejaVuSans-31"/>
       <use x="63.623047" xlink:href="#DejaVuSans-30"/>
      </g>
     </g>
    </g>
    <g id="text_11">
     <!-- M -->
     <defs>
      <path d="M 9.8125 72.90625 
L 24.515625 72.90625 
L 43.109375 23.296875 
L 61.8125 72.90625 
L 76.515625 72.90625 
L 76.515625 0 
L 66.890625 0 
L 66.890625 64.015625 
L 48.09375 14.015625 
L 38.1875 14.015625 
L 19.390625 64.015625 
L 19.390625 0 
L 9.8125 0 
z
" id="DejaVuSans-4d"/>
     </defs>
     <g transform="translate(235.003791 287.187187)scale(0.14 -0.14)">
      <use xlink:href="#DejaVuSans-4d"/>
     </g>
    </g>
   </g>
   <g id="matplotlib.axis_2">
    <g id="ytick_1">
     <g id="line2d_11">
      <defs>
       <path d="M 0 0 
L -3.5 0 
" id="mababcd5f86" style="stroke:#000000;stroke-width:0.8;"/>
      </defs>
      <g>
       <use style="stroke:#000000;stroke-width:0.8;" x="144" xlink:href="#mababcd5f86" y="211.579915"/>
      </g>
     </g>
     <g id="text_12">
      <!-- $\mathdefault{10^{1}}$ -->
      <g transform="translate(112.36 216.898821)scale(0.14 -0.14)">
       <use transform="translate(0 0.684375)" xlink:href="#DejaVuSans-31"/>
       <use transform="translate(63.623047 0.684375)" xlink:href="#DejaVuSans-30"/>
       <use transform="translate(128.203125 38.965625)scale(0.7)" xlink:href="#DejaVuSans-31"/>
      </g>
     </g>
    </g>
    <g id="ytick_2">
     <g id="line2d_12">
      <g>
       <use style="stroke:#000000;stroke-width:0.8;" x="144" xlink:href="#mababcd5f86" y="168.643832"/>
      </g>
     </g>
     <g id="text_13">
      <!-- $\mathdefault{10^{3}}$ -->
      <g transform="translate(112.36 173.962738)scale(0.14 -0.14)">
       <use transform="translate(0 0.765625)" xlink:href="#DejaVuSans-31"/>
       <use transform="translate(63.623047 0.765625)" xlink:href="#DejaVuSans-30"/>
       <use transform="translate(128.203125 39.046875)scale(0.7)" xlink:href="#DejaVuSans-33"/>
      </g>
     </g>
    </g>
    <g id="ytick_3">
     <g id="line2d_13">
      <g>
       <use style="stroke:#000000;stroke-width:0.8;" x="144" xlink:href="#mababcd5f86" y="125.707749"/>
      </g>
     </g>
     <g id="text_14">
      <!-- $\mathdefault{10^{5}}$ -->
      <g transform="translate(112.36 131.026655)scale(0.14 -0.14)">
       <use transform="translate(0 0.684375)" xlink:href="#DejaVuSans-31"/>
       <use transform="translate(63.623047 0.684375)" xlink:href="#DejaVuSans-30"/>
       <use transform="translate(128.203125 38.965625)scale(0.7)" xlink:href="#DejaVuSans-35"/>
      </g>
     </g>
    </g>
    <g id="ytick_4">
     <g id="line2d_14">
      <g>
       <use style="stroke:#000000;stroke-width:0.8;" x="144" xlink:href="#mababcd5f86" y="82.771666"/>
      </g>
     </g>
     <g id="text_15">
      <!-- $\mathdefault{10^{7}}$ -->
      <g transform="translate(112.36 88.090573)scale(0.14 -0.14)">
       <use transform="translate(0 0.684375)" xlink:href="#DejaVuSans-31"/>
       <use transform="translate(63.623047 0.684375)" xlink:href="#DejaVuSans-30"/>
       <use transform="translate(128.203125 38.965625)scale(0.7)" xlink:href="#DejaVuSans-37"/>
      </g>
     </g>
    </g>
    <g id="ytick_5">
     <g id="line2d_15">
      <g>
       <use style="stroke:#000000;stroke-width:0.8;" x="144" xlink:href="#mababcd5f86" y="39.835584"/>
      </g>
     </g>
     <g id="text_16">
      <!-- $\mathdefault{10^{9}}$ -->
      <g transform="translate(112.36 45.15449)scale(0.14 -0.14)">
       <use transform="translate(0 0.765625)" xlink:href="#DejaVuSans-31"/>
       <use transform="translate(63.623047 0.765625)" xlink:href="#DejaVuSans-30"/>
       <use transform="translate(128.203125 39.046875)scale(0.7)" xlink:href="#DejaVuSans-39"/>
      </g>
     </g>
    </g>
    <g id="text_17">
     <!-- w -->
     <defs>
      <path d="M 4.203125 54.6875 
L 13.1875 54.6875 
L 24.421875 12.015625 
L 35.59375 54.6875 
L 46.1875 54.6875 
L 57.421875 12.015625 
L 68.609375 54.6875 
L 77.59375 54.6875 
L 63.28125 0 
L 52.6875 0 
L 40.921875 44.828125 
L 29.109375 0 
L 18.5 0 
z
" id="DejaVuSans-77"/>
     </defs>
     <g transform="translate(105.448437 149.004687)rotate(-90)scale(0.14 -0.14)">
      <use xlink:href="#DejaVuSans-77"/>
     </g>
    </g>
   </g>
   <g id="line2d_16">
    <path clip-path="url(#p52c9c778a7)" d="M 152.822134 229.522642 
L 172.426877 212.731013 
L 192.031621 195.939384 
L 211.636364 179.147755 
L 231.241107 162.356126 
L 250.84585 145.564496 
L 270.450593 128.772867 
L 290.055336 111.981238 
L 309.660079 95.189609 
L 329.264822 78.39798 
" style="fill:none;stroke:#0000ff;stroke-linecap:square;"/>
   </g>
   <g id="line2d_17">
    <path clip-path="url(#p52c9c778a7)" d="M 152.822134 225.904556 
L 172.426877 210.318956 
L 192.031621 195.939384 
L 211.636364 179.147755 
L 231.241107 139.163268 
L 250.84585 134.895782 
L 270.450593 134.895782 
L 290.055336 81.088352 
L 309.660079 68.285894 
L 329.264822 44.443636 
" style="fill:none;stroke:#000000;stroke-dasharray:1,1.65;stroke-dashoffset:0;"/>
    <defs>
     <path d="M -3 3 
L 3 3 
L 3 -3 
L -3 -3 
z
" id="m7b8691ebf0" style="stroke:#000000;stroke-linejoin:miter;"/>
    </defs>
    <g clip-path="url(#p52c9c778a7)">
     <use style="stroke:#000000;stroke-linejoin:miter;" x="152.822134" xlink:href="#m7b8691ebf0" y="225.904556"/>
     <use style="stroke:#000000;stroke-linejoin:miter;" x="172.426877" xlink:href="#m7b8691ebf0" y="210.318956"/>
     <use style="stroke:#000000;stroke-linejoin:miter;" x="192.031621" xlink:href="#m7b8691ebf0" y="195.939384"/>
     <use style="stroke:#000000;stroke-linejoin:miter;" x="211.636364" xlink:href="#m7b8691ebf0" y="179.147755"/>
     <use style="stroke:#000000;stroke-linejoin:miter;" x="231.241107" xlink:href="#m7b8691ebf0" y="139.163268"/>
     <use style="stroke:#000000;stroke-linejoin:miter;" x="250.84585" xlink:href="#m7b8691ebf0" y="134.895782"/>
     <use style="stroke:#000000;stroke-linejoin:miter;" x="270.450593" xlink:href="#m7b8691ebf0" y="134.895782"/>
     <use style="stroke:#000000;stroke-linejoin:miter;" x="290.055336" xlink:href="#m7b8691ebf0" y="81.088352"/>
     <use style="stroke:#000000;stroke-linejoin:miter;" x="309.660079" xlink:href="#m7b8691ebf0" y="68.285894"/>
     <use style="stroke:#000000;stroke-linejoin:miter;" x="329.264822" xlink:href="#m7b8691ebf0" y="44.443636"/>
    </g>
   </g>
   <g id="patch_3">
    <path d="M 144 252 
L 144 34.56 
" style="fill:none;stroke:#000000;stroke-linecap:square;stroke-linejoin:miter;stroke-width:0.8;"/>
   </g>
   <g id="patch_4">
    <path d="M 338.086957 252 
L 338.086957 34.56 
" style="fill:none;stroke:#000000;stroke-linecap:square;stroke-linejoin:miter;stroke-width:0.8;"/>
   </g>
   <g id="patch_5">
    <path d="M 144 252 
L 338.086957 252 
" style="fill:none;stroke:#000000;stroke-linecap:square;stroke-linejoin:miter;stroke-width:0.8;"/>
   </g>
   <g id="patch_6">
    <path d="M 144 34.56 
L 338.086957 34.56 
" style="fill:none;stroke:#000000;stroke-linecap:square;stroke-linejoin:miter;stroke-width:0.8;"/>
   </g>
   <g id="text_18">
    <!-- N = 1 -->
    <defs>
     <path d="M 9.8125 72.90625 
L 23.09375 72.90625 
L 55.421875 11.921875 
L 55.421875 72.90625 
L 64.984375 72.90625 
L 64.984375 0 
L 51.703125 0 
L 19.390625 60.984375 
L 19.390625 0 
L 9.8125 0 
z
" id="DejaVuSans-4e"/>
     <path id="DejaVuSans-20"/>
     <path d="M 10.59375 45.40625 
L 73.1875 45.40625 
L 73.1875 37.203125 
L 10.59375 37.203125 
z
M 10.59375 25.484375 
L 73.1875 25.484375 
L 73.1875 17.1875 
L 10.59375 17.1875 
z
" id="DejaVuSans-3d"/>
    </defs>
    <g transform="translate(217.036541 28.56)scale(0.168 -0.168)">
     <use xlink:href="#DejaVuSans-4e"/>
     <use x="74.804688" xlink:href="#DejaVuSans-20"/>
     <use x="106.591797" xlink:href="#DejaVuSans-3d"/>
     <use x="190.380859" xlink:href="#DejaVuSans-20"/>
     <use x="222.167969" xlink:href="#DejaVuSans-31"/>
    </g>
   </g>
  </g>
  <g id="axes_2">
   <g id="patch_7">
    <path d="M 376.904348 252 
L 570.991304 252 
L 570.991304 34.56 
L 376.904348 34.56 
z
" style="fill:#ffffff;"/>
   </g>
   <g id="matplotlib.axis_3">
    <g id="xtick_11">
     <g id="line2d_18">
      <g>
       <use style="stroke:#000000;stroke-width:0.8;" x="385.726482" xlink:href="#m8198fdd103" y="252"/>
      </g>
     </g>
     <g id="text_19">
      <!-- 1 -->
      <g transform="translate(381.272732 269.637812)scale(0.14 -0.14)">
       <use xlink:href="#DejaVuSans-31"/>
      </g>
     </g>
    </g>
    <g id="xtick_12">
     <g id="line2d_19">
      <g>
       <use style="stroke:#000000;stroke-width:0.8;" x="405.331225" xlink:href="#m8198fdd103" y="252"/>
      </g>
     </g>
     <g id="text_20">
      <!-- 2 -->
      <g transform="translate(400.877475 269.637812)scale(0.14 -0.14)">
       <use xlink:href="#DejaVuSans-32"/>
      </g>
     </g>
    </g>
    <g id="xtick_13">
     <g id="line2d_20">
      <g>
       <use style="stroke:#000000;stroke-width:0.8;" x="424.935968" xlink:href="#m8198fdd103" y="252"/>
      </g>
     </g>
     <g id="text_21">
      <!-- 3 -->
      <g transform="translate(420.482218 269.637812)scale(0.14 -0.14)">
       <use xlink:href="#DejaVuSans-33"/>
      </g>
     </g>
    </g>
    <g id="xtick_14">
     <g id="line2d_21">
      <g>
       <use style="stroke:#000000;stroke-width:0.8;" x="444.540711" xlink:href="#m8198fdd103" y="252"/>
      </g>
     </g>
     <g id="text_22">
      <!-- 4 -->
      <g transform="translate(440.086961 269.637812)scale(0.14 -0.14)">
       <use xlink:href="#DejaVuSans-34"/>
      </g>
     </g>
    </g>
    <g id="xtick_15">
     <g id="line2d_22">
      <g>
       <use style="stroke:#000000;stroke-width:0.8;" x="464.145455" xlink:href="#m8198fdd103" y="252"/>
      </g>
     </g>
     <g id="text_23">
      <!-- 5 -->
      <g transform="translate(459.691705 269.637812)scale(0.14 -0.14)">
       <use xlink:href="#DejaVuSans-35"/>
      </g>
     </g>
    </g>
    <g id="xtick_16">
     <g id="line2d_23">
      <g>
       <use style="stroke:#000000;stroke-width:0.8;" x="483.750198" xlink:href="#m8198fdd103" y="252"/>
      </g>
     </g>
     <g id="text_24">
      <!-- 6 -->
      <g transform="translate(479.296448 269.637812)scale(0.14 -0.14)">
       <use xlink:href="#DejaVuSans-36"/>
      </g>
     </g>
    </g>
    <g id="xtick_17">
     <g id="line2d_24">
      <g>
       <use style="stroke:#000000;stroke-width:0.8;" x="503.354941" xlink:href="#m8198fdd103" y="252"/>
      </g>
     </g>
     <g id="text_25">
      <!-- 7 -->
      <g transform="translate(498.901191 269.637812)scale(0.14 -0.14)">
       <use xlink:href="#DejaVuSans-37"/>
      </g>
     </g>
    </g>
    <g id="xtick_18">
     <g id="line2d_25">
      <g>
       <use style="stroke:#000000;stroke-width:0.8;" x="522.959684" xlink:href="#m8198fdd103" y="252"/>
      </g>
     </g>
     <g id="text_26">
      <!-- 8 -->
      <g transform="translate(518.505934 269.637812)scale(0.14 -0.14)">
       <use xlink:href="#DejaVuSans-38"/>
      </g>
     </g>
    </g>
    <g id="xtick_19">
     <g id="line2d_26">
      <g>
       <use style="stroke:#000000;stroke-width:0.8;" x="542.564427" xlink:href="#m8198fdd103" y="252"/>
      </g>
     </g>
     <g id="text_27">
      <!-- 9 -->
      <g transform="translate(538.110677 269.637812)scale(0.14 -0.14)">
       <use xlink:href="#DejaVuSans-39"/>
      </g>
     </g>
    </g>
    <g id="xtick_20">
     <g id="line2d_27">
      <g>
       <use style="stroke:#000000;stroke-width:0.8;" x="562.16917" xlink:href="#m8198fdd103" y="252"/>
      </g>
     </g>
     <g id="text_28">
      <!-- 10 -->
      <g transform="translate(553.26167 269.637812)scale(0.14 -0.14)">
       <use xlink:href="#DejaVuSans-31"/>
       <use x="63.623047" xlink:href="#DejaVuSans-30"/>
      </g>
     </g>
    </g>
    <g id="text_29">
     <!-- M -->
     <g transform="translate(467.908139 287.187187)scale(0.14 -0.14)">
      <use xlink:href="#DejaVuSans-4d"/>
     </g>
    </g>
   </g>
   <g id="matplotlib.axis_4">
    <g id="ytick_6">
     <g id="line2d_28">
      <g>
       <use style="stroke:#000000;stroke-width:0.8;" x="376.904348" xlink:href="#mababcd5f86" y="211.579915"/>
      </g>
     </g>
    </g>
    <g id="ytick_7">
     <g id="line2d_29">
      <g>
       <use style="stroke:#000000;stroke-width:0.8;" x="376.904348" xlink:href="#mababcd5f86" y="168.643832"/>
      </g>
     </g>
    </g>
    <g id="ytick_8">
     <g id="line2d_30">
      <g>
       <use style="stroke:#000000;stroke-width:0.8;" x="376.904348" xlink:href="#mababcd5f86" y="125.707749"/>
      </g>
     </g>
    </g>
    <g id="ytick_9">
     <g id="line2d_31">
      <g>
       <use style="stroke:#000000;stroke-width:0.8;" x="376.904348" xlink:href="#mababcd5f86" y="82.771666"/>
      </g>
     </g>
    </g>
    <g id="ytick_10">
     <g id="line2d_32">
      <g>
       <use style="stroke:#000000;stroke-width:0.8;" x="376.904348" xlink:href="#mababcd5f86" y="39.835584"/>
      </g>
     </g>
    </g>
    <g id="text_30">
     <!-- w -->
     <g transform="translate(369.992785 149.004687)rotate(-90)scale(0.14 -0.14)">
      <use xlink:href="#DejaVuSans-77"/>
     </g>
    </g>
   </g>
   <g id="line2d_33">
    <path clip-path="url(#pe3c6602f8c)" d="M 385.726482 237.918456 
L 405.331225 229.522642 
L 424.935968 221.126827 
L 444.540711 212.731013 
L 464.145455 204.335198 
L 483.750198 195.939384 
L 503.354941 187.543569 
L 522.959684 179.147755 
L 542.564427 170.75194 
L 562.16917 162.356126 
" style="fill:none;stroke:#0000ff;stroke-linecap:square;"/>
   </g>
   <g id="line2d_34">
    <path clip-path="url(#pe3c6602f8c)" d="M 385.726482 239.510481 
L 405.331225 239.510481 
L 424.935968 218.853927 
L 444.540711 213.473184 
L 464.145455 205.587613 
L 483.750198 185.827298 
L 503.354941 180.16824 
L 522.959684 167.551326 
L 542.564427 148.162097 
L 562.16917 146.956068 
" style="fill:none;stroke:#000000;stroke-dasharray:1,1.65;stroke-dashoffset:0;"/>
    <g clip-path="url(#pe3c6602f8c)">
     <use style="stroke:#000000;stroke-linejoin:miter;" x="385.726482" xlink:href="#m7b8691ebf0" y="239.510481"/>
     <use style="stroke:#000000;stroke-linejoin:miter;" x="405.331225" xlink:href="#m7b8691ebf0" y="239.510481"/>
     <use style="stroke:#000000;stroke-linejoin:miter;" x="424.935968" xlink:href="#m7b8691ebf0" y="218.853927"/>
     <use style="stroke:#000000;stroke-linejoin:miter;" x="444.540711" xlink:href="#m7b8691ebf0" y="213.473184"/>
     <use style="stroke:#000000;stroke-linejoin:miter;" x="464.145455" xlink:href="#m7b8691ebf0" y="205.587613"/>
     <use style="stroke:#000000;stroke-linejoin:miter;" x="483.750198" xlink:href="#m7b8691ebf0" y="185.827298"/>
     <use style="stroke:#000000;stroke-linejoin:miter;" x="503.354941" xlink:href="#m7b8691ebf0" y="180.16824"/>
     <use style="stroke:#000000;stroke-linejoin:miter;" x="522.959684" xlink:href="#m7b8691ebf0" y="167.551326"/>
     <use style="stroke:#000000;stroke-linejoin:miter;" x="542.564427" xlink:href="#m7b8691ebf0" y="148.162097"/>
     <use style="stroke:#000000;stroke-linejoin:miter;" x="562.16917" xlink:href="#m7b8691ebf0" y="146.956068"/>
    </g>
   </g>
   <g id="patch_8">
    <path d="M 376.904348 252 
L 376.904348 34.56 
" style="fill:none;stroke:#000000;stroke-linecap:square;stroke-linejoin:miter;stroke-width:0.8;"/>
   </g>
   <g id="patch_9">
    <path d="M 570.991304 252 
L 570.991304 34.56 
" style="fill:none;stroke:#000000;stroke-linecap:square;stroke-linejoin:miter;stroke-width:0.8;"/>
   </g>
   <g id="patch_10">
    <path d="M 376.904348 252 
L 570.991304 252 
" style="fill:none;stroke:#000000;stroke-linecap:square;stroke-linejoin:miter;stroke-width:0.8;"/>
   </g>
   <g id="patch_11">
    <path d="M 376.904348 34.56 
L 570.991304 34.56 
" style="fill:none;stroke:#000000;stroke-linecap:square;stroke-linejoin:miter;stroke-width:0.8;"/>
   </g>
   <g id="text_31">
    <!-- N = 2 -->
    <g transform="translate(449.940889 28.56)scale(0.168 -0.168)">
     <use xlink:href="#DejaVuSans-4e"/>
     <use x="74.804688" xlink:href="#DejaVuSans-20"/>
     <use x="106.591797" xlink:href="#DejaVuSans-3d"/>
     <use x="190.380859" xlink:href="#DejaVuSans-20"/>
     <use x="222.167969" xlink:href="#DejaVuSans-32"/>
    </g>
   </g>
  </g>
  <g id="axes_3">
   <g id="patch_12">
    <path d="M 609.808696 252 
L 803.895652 252 
L 803.895652 34.56 
L 609.808696 34.56 
z
" style="fill:#ffffff;"/>
   </g>
   <g id="matplotlib.axis_5">
    <g id="xtick_21">
     <g id="line2d_35">
      <g>
       <use style="stroke:#000000;stroke-width:0.8;" x="618.63083" xlink:href="#m8198fdd103" y="252"/>
      </g>
     </g>
     <g id="text_32">
      <!-- 1 -->
      <g transform="translate(614.17708 269.637812)scale(0.14 -0.14)">
       <use xlink:href="#DejaVuSans-31"/>
      </g>
     </g>
    </g>
    <g id="xtick_22">
     <g id="line2d_36">
      <g>
       <use style="stroke:#000000;stroke-width:0.8;" x="638.235573" xlink:href="#m8198fdd103" y="252"/>
      </g>
     </g>
     <g id="text_33">
      <!-- 2 -->
      <g transform="translate(633.781823 269.637812)scale(0.14 -0.14)">
       <use xlink:href="#DejaVuSans-32"/>
      </g>
     </g>
    </g>
    <g id="xtick_23">
     <g id="line2d_37">
      <g>
       <use style="stroke:#000000;stroke-width:0.8;" x="657.840316" xlink:href="#m8198fdd103" y="252"/>
      </g>
     </g>
     <g id="text_34">
      <!-- 3 -->
      <g transform="translate(653.386566 269.637812)scale(0.14 -0.14)">
       <use xlink:href="#DejaVuSans-33"/>
      </g>
     </g>
    </g>
    <g id="xtick_24">
     <g id="line2d_38">
      <g>
       <use style="stroke:#000000;stroke-width:0.8;" x="677.445059" xlink:href="#m8198fdd103" y="252"/>
      </g>
     </g>
     <g id="text_35">
      <!-- 4 -->
      <g transform="translate(672.991309 269.637812)scale(0.14 -0.14)">
       <use xlink:href="#DejaVuSans-34"/>
      </g>
     </g>
    </g>
    <g id="xtick_25">
     <g id="line2d_39">
      <g>
       <use style="stroke:#000000;stroke-width:0.8;" x="697.049802" xlink:href="#m8198fdd103" y="252"/>
      </g>
     </g>
     <g id="text_36">
      <!-- 5 -->
      <g transform="translate(692.596052 269.637812)scale(0.14 -0.14)">
       <use xlink:href="#DejaVuSans-35"/>
      </g>
     </g>
    </g>
    <g id="xtick_26">
     <g id="line2d_40">
      <g>
       <use style="stroke:#000000;stroke-width:0.8;" x="716.654545" xlink:href="#m8198fdd103" y="252"/>
      </g>
     </g>
     <g id="text_37">
      <!-- 6 -->
      <g transform="translate(712.200795 269.637812)scale(0.14 -0.14)">
       <use xlink:href="#DejaVuSans-36"/>
      </g>
     </g>
    </g>
    <g id="xtick_27">
     <g id="line2d_41">
      <g>
       <use style="stroke:#000000;stroke-width:0.8;" x="736.259289" xlink:href="#m8198fdd103" y="252"/>
      </g>
     </g>
     <g id="text_38">
      <!-- 7 -->
      <g transform="translate(731.805539 269.637812)scale(0.14 -0.14)">
       <use xlink:href="#DejaVuSans-37"/>
      </g>
     </g>
    </g>
    <g id="xtick_28">
     <g id="line2d_42">
      <g>
       <use style="stroke:#000000;stroke-width:0.8;" x="755.864032" xlink:href="#m8198fdd103" y="252"/>
      </g>
     </g>
     <g id="text_39">
      <!-- 8 -->
      <g transform="translate(751.410282 269.637812)scale(0.14 -0.14)">
       <use xlink:href="#DejaVuSans-38"/>
      </g>
     </g>
    </g>
    <g id="xtick_29">
     <g id="line2d_43">
      <g>
       <use style="stroke:#000000;stroke-width:0.8;" x="775.468775" xlink:href="#m8198fdd103" y="252"/>
      </g>
     </g>
     <g id="text_40">
      <!-- 9 -->
      <g transform="translate(771.015025 269.637812)scale(0.14 -0.14)">
       <use xlink:href="#DejaVuSans-39"/>
      </g>
     </g>
    </g>
    <g id="xtick_30">
     <g id="line2d_44">
      <g>
       <use style="stroke:#000000;stroke-width:0.8;" x="795.073518" xlink:href="#m8198fdd103" y="252"/>
      </g>
     </g>
     <g id="text_41">
      <!-- 10 -->
      <g transform="translate(786.166018 269.637812)scale(0.14 -0.14)">
       <use xlink:href="#DejaVuSans-31"/>
       <use x="63.623047" xlink:href="#DejaVuSans-30"/>
      </g>
     </g>
    </g>
    <g id="text_42">
     <!-- M -->
     <g transform="translate(700.812486 287.187187)scale(0.14 -0.14)">
      <use xlink:href="#DejaVuSans-4d"/>
     </g>
    </g>
   </g>
   <g id="matplotlib.axis_6">
    <g id="ytick_11">
     <g id="line2d_45">
      <g>
       <use style="stroke:#000000;stroke-width:0.8;" x="609.808696" xlink:href="#mababcd5f86" y="211.579915"/>
      </g>
     </g>
    </g>
    <g id="ytick_12">
     <g id="line2d_46">
      <g>
       <use style="stroke:#000000;stroke-width:0.8;" x="609.808696" xlink:href="#mababcd5f86" y="168.643832"/>
      </g>
     </g>
    </g>
    <g id="ytick_13">
     <g id="line2d_47">
      <g>
       <use style="stroke:#000000;stroke-width:0.8;" x="609.808696" xlink:href="#mababcd5f86" y="125.707749"/>
      </g>
     </g>
    </g>
    <g id="ytick_14">
     <g id="line2d_48">
      <g>
       <use style="stroke:#000000;stroke-width:0.8;" x="609.808696" xlink:href="#mababcd5f86" y="82.771666"/>
      </g>
     </g>
    </g>
    <g id="ytick_15">
     <g id="line2d_49">
      <g>
       <use style="stroke:#000000;stroke-width:0.8;" x="609.808696" xlink:href="#mababcd5f86" y="39.835584"/>
      </g>
     </g>
    </g>
    <g id="text_43">
     <!-- w -->
     <g transform="translate(602.897133 149.004687)rotate(-90)scale(0.14 -0.14)">
      <use xlink:href="#DejaVuSans-77"/>
     </g>
    </g>
   </g>
   <g id="line2d_50">
    <path clip-path="url(#pd528c0e3b0)" d="M 618.63083 240.717061 
L 638.235573 235.119852 
L 657.840316 229.522642 
L 677.445059 223.925432 
L 697.049802 218.328222 
L 716.654545 212.731013 
L 736.259289 207.133803 
L 755.864032 201.536593 
L 775.468775 195.939384 
L 795.073518 190.342174 
" style="fill:none;stroke:#0000ff;stroke-linecap:square;"/>
   </g>
   <g id="line2d_51">
    <path clip-path="url(#pd528c0e3b0)" d="M 618.63083 239.510481 
L 638.235573 239.510481 
L 657.840316 239.510481 
L 677.445059 223.770813 
L 697.049802 220.152727 
L 716.654545 220.152727 
L 736.259289 203.45387 
L 755.864032 203.45387 
L 775.468775 203.45387 
L 795.073518 182.023669 
" style="fill:none;stroke:#000000;stroke-dasharray:1,1.65;stroke-dashoffset:0;"/>
    <g clip-path="url(#pd528c0e3b0)">
     <use style="stroke:#000000;stroke-linejoin:miter;" x="618.63083" xlink:href="#m7b8691ebf0" y="239.510481"/>
     <use style="stroke:#000000;stroke-linejoin:miter;" x="638.235573" xlink:href="#m7b8691ebf0" y="239.510481"/>
     <use style="stroke:#000000;stroke-linejoin:miter;" x="657.840316" xlink:href="#m7b8691ebf0" y="239.510481"/>
     <use style="stroke:#000000;stroke-linejoin:miter;" x="677.445059" xlink:href="#m7b8691ebf0" y="223.770813"/>
     <use style="stroke:#000000;stroke-linejoin:miter;" x="697.049802" xlink:href="#m7b8691ebf0" y="220.152727"/>
     <use style="stroke:#000000;stroke-linejoin:miter;" x="716.654545" xlink:href="#m7b8691ebf0" y="220.152727"/>
     <use style="stroke:#000000;stroke-linejoin:miter;" x="736.259289" xlink:href="#m7b8691ebf0" y="203.45387"/>
     <use style="stroke:#000000;stroke-linejoin:miter;" x="755.864032" xlink:href="#m7b8691ebf0" y="203.45387"/>
     <use style="stroke:#000000;stroke-linejoin:miter;" x="775.468775" xlink:href="#m7b8691ebf0" y="203.45387"/>
     <use style="stroke:#000000;stroke-linejoin:miter;" x="795.073518" xlink:href="#m7b8691ebf0" y="182.023669"/>
    </g>
   </g>
   <g id="patch_13">
    <path d="M 609.808696 252 
L 609.808696 34.56 
" style="fill:none;stroke:#000000;stroke-linecap:square;stroke-linejoin:miter;stroke-width:0.8;"/>
   </g>
   <g id="patch_14">
    <path d="M 803.895652 252 
L 803.895652 34.56 
" style="fill:none;stroke:#000000;stroke-linecap:square;stroke-linejoin:miter;stroke-width:0.8;"/>
   </g>
   <g id="patch_15">
    <path d="M 609.808696 252 
L 803.895652 252 
" style="fill:none;stroke:#000000;stroke-linecap:square;stroke-linejoin:miter;stroke-width:0.8;"/>
   </g>
   <g id="patch_16">
    <path d="M 609.808696 34.56 
L 803.895652 34.56 
" style="fill:none;stroke:#000000;stroke-linecap:square;stroke-linejoin:miter;stroke-width:0.8;"/>
   </g>
   <g id="text_44">
    <!-- N = 3 -->
    <g transform="translate(682.845236 28.56)scale(0.168 -0.168)">
     <use xlink:href="#DejaVuSans-4e"/>
     <use x="74.804688" xlink:href="#DejaVuSans-20"/>
     <use x="106.591797" xlink:href="#DejaVuSans-3d"/>
     <use x="190.380859" xlink:href="#DejaVuSans-20"/>
     <use x="222.167969" xlink:href="#DejaVuSans-33"/>
    </g>
   </g>
  </g>
  <g id="axes_4">
   <g id="patch_17">
    <path d="M 842.713043 252 
L 1036.8 252 
L 1036.8 34.56 
L 842.713043 34.56 
z
" style="fill:#ffffff;"/>
   </g>
   <g id="matplotlib.axis_7">
    <g id="xtick_31">
     <g id="line2d_52">
      <g>
       <use style="stroke:#000000;stroke-width:0.8;" x="851.535178" xlink:href="#m8198fdd103" y="252"/>
      </g>
     </g>
     <g id="text_45">
      <!-- 1 -->
      <g transform="translate(847.081428 269.637812)scale(0.14 -0.14)">
       <use xlink:href="#DejaVuSans-31"/>
      </g>
     </g>
    </g>
    <g id="xtick_32">
     <g id="line2d_53">
      <g>
       <use style="stroke:#000000;stroke-width:0.8;" x="871.139921" xlink:href="#m8198fdd103" y="252"/>
      </g>
     </g>
     <g id="text_46">
      <!-- 2 -->
      <g transform="translate(866.686171 269.637812)scale(0.14 -0.14)">
       <use xlink:href="#DejaVuSans-32"/>
      </g>
     </g>
    </g>
    <g id="xtick_33">
     <g id="line2d_54">
      <g>
       <use style="stroke:#000000;stroke-width:0.8;" x="890.744664" xlink:href="#m8198fdd103" y="252"/>
      </g>
     </g>
     <g id="text_47">
      <!-- 3 -->
      <g transform="translate(886.290914 269.637812)scale(0.14 -0.14)">
       <use xlink:href="#DejaVuSans-33"/>
      </g>
     </g>
    </g>
    <g id="xtick_34">
     <g id="line2d_55">
      <g>
       <use style="stroke:#000000;stroke-width:0.8;" x="910.349407" xlink:href="#m8198fdd103" y="252"/>
      </g>
     </g>
     <g id="text_48">
      <!-- 4 -->
      <g transform="translate(905.895657 269.637812)scale(0.14 -0.14)">
       <use xlink:href="#DejaVuSans-34"/>
      </g>
     </g>
    </g>
    <g id="xtick_35">
     <g id="line2d_56">
      <g>
       <use style="stroke:#000000;stroke-width:0.8;" x="929.95415" xlink:href="#m8198fdd103" y="252"/>
      </g>
     </g>
     <g id="text_49">
      <!-- 5 -->
      <g transform="translate(925.5004 269.637812)scale(0.14 -0.14)">
       <use xlink:href="#DejaVuSans-35"/>
      </g>
     </g>
    </g>
    <g id="xtick_36">
     <g id="line2d_57">
      <g>
       <use style="stroke:#000000;stroke-width:0.8;" x="949.558893" xlink:href="#m8198fdd103" y="252"/>
      </g>
     </g>
     <g id="text_50">
      <!-- 6 -->
      <g transform="translate(945.105143 269.637812)scale(0.14 -0.14)">
       <use xlink:href="#DejaVuSans-36"/>
      </g>
     </g>
    </g>
    <g id="xtick_37">
     <g id="line2d_58">
      <g>
       <use style="stroke:#000000;stroke-width:0.8;" x="969.163636" xlink:href="#m8198fdd103" y="252"/>
      </g>
     </g>
     <g id="text_51">
      <!-- 7 -->
      <g transform="translate(964.709886 269.637812)scale(0.14 -0.14)">
       <use xlink:href="#DejaVuSans-37"/>
      </g>
     </g>
    </g>
    <g id="xtick_38">
     <g id="line2d_59">
      <g>
       <use style="stroke:#000000;stroke-width:0.8;" x="988.768379" xlink:href="#m8198fdd103" y="252"/>
      </g>
     </g>
     <g id="text_52">
      <!-- 8 -->
      <g transform="translate(984.314629 269.637812)scale(0.14 -0.14)">
       <use xlink:href="#DejaVuSans-38"/>
      </g>
     </g>
    </g>
    <g id="xtick_39">
     <g id="line2d_60">
      <g>
       <use style="stroke:#000000;stroke-width:0.8;" x="1008.373123" xlink:href="#m8198fdd103" y="252"/>
      </g>
     </g>
     <g id="text_53">
      <!-- 9 -->
      <g transform="translate(1003.919373 269.637812)scale(0.14 -0.14)">
       <use xlink:href="#DejaVuSans-39"/>
      </g>
     </g>
    </g>
    <g id="xtick_40">
     <g id="line2d_61">
      <g>
       <use style="stroke:#000000;stroke-width:0.8;" x="1027.977866" xlink:href="#m8198fdd103" y="252"/>
      </g>
     </g>
     <g id="text_54">
      <!-- 10 -->
      <g transform="translate(1019.070366 269.637812)scale(0.14 -0.14)">
       <use xlink:href="#DejaVuSans-31"/>
       <use x="63.623047" xlink:href="#DejaVuSans-30"/>
      </g>
     </g>
    </g>
    <g id="text_55">
     <!-- M -->
     <g transform="translate(933.716834 287.187187)scale(0.14 -0.14)">
      <use xlink:href="#DejaVuSans-4d"/>
     </g>
    </g>
   </g>
   <g id="matplotlib.axis_8">
    <g id="ytick_16">
     <g id="line2d_62">
      <g>
       <use style="stroke:#000000;stroke-width:0.8;" x="842.713043" xlink:href="#mababcd5f86" y="211.579915"/>
      </g>
     </g>
    </g>
    <g id="ytick_17">
     <g id="line2d_63">
      <g>
       <use style="stroke:#000000;stroke-width:0.8;" x="842.713043" xlink:href="#mababcd5f86" y="168.643832"/>
      </g>
     </g>
    </g>
    <g id="ytick_18">
     <g id="line2d_64">
      <g>
       <use style="stroke:#000000;stroke-width:0.8;" x="842.713043" xlink:href="#mababcd5f86" y="125.707749"/>
      </g>
     </g>
    </g>
    <g id="ytick_19">
     <g id="line2d_65">
      <g>
       <use style="stroke:#000000;stroke-width:0.8;" x="842.713043" xlink:href="#mababcd5f86" y="82.771666"/>
      </g>
     </g>
    </g>
    <g id="ytick_20">
     <g id="line2d_66">
      <g>
       <use style="stroke:#000000;stroke-width:0.8;" x="842.713043" xlink:href="#mababcd5f86" y="39.835584"/>
      </g>
     </g>
    </g>
    <g id="text_56">
     <!-- w -->
     <g transform="translate(835.801481 149.004687)rotate(-90)scale(0.14 -0.14)">
      <use xlink:href="#DejaVuSans-77"/>
     </g>
    </g>
   </g>
   <g id="line2d_67">
    <path clip-path="url(#pf584ded16a)" d="M 851.535178 242.116364 
L 871.139921 237.918456 
L 890.744664 233.720549 
L 910.349407 229.522642 
L 929.95415 225.324735 
L 949.558893 221.126827 
L 969.163636 216.92892 
L 988.768379 212.731013 
L 1008.373123 208.533106 
L 1027.977866 204.335198 
" style="fill:none;stroke:#0000ff;stroke-linecap:square;"/>
   </g>
   <g id="line2d_68">
    <path clip-path="url(#pf584ded16a)" d="M 851.535178 239.510481 
L 871.139921 239.510481 
L 890.744664 239.510481 
L 910.349407 239.510481 
L 929.95415 230.07927 
L 949.558893 227.110585 
L 969.163636 218.482842 
L 988.768379 218.482842 
L 1008.373123 209.855098 
L 1027.977866 208.927384 
" style="fill:none;stroke:#000000;stroke-dasharray:1,1.65;stroke-dashoffset:0;"/>
    <g clip-path="url(#pf584ded16a)">
     <use style="stroke:#000000;stroke-linejoin:miter;" x="851.535178" xlink:href="#m7b8691ebf0" y="239.510481"/>
     <use style="stroke:#000000;stroke-linejoin:miter;" x="871.139921" xlink:href="#m7b8691ebf0" y="239.510481"/>
     <use style="stroke:#000000;stroke-linejoin:miter;" x="890.744664" xlink:href="#m7b8691ebf0" y="239.510481"/>
     <use style="stroke:#000000;stroke-linejoin:miter;" x="910.349407" xlink:href="#m7b8691ebf0" y="239.510481"/>
     <use style="stroke:#000000;stroke-linejoin:miter;" x="929.95415" xlink:href="#m7b8691ebf0" y="230.07927"/>
     <use style="stroke:#000000;stroke-linejoin:miter;" x="949.558893" xlink:href="#m7b8691ebf0" y="227.110585"/>
     <use style="stroke:#000000;stroke-linejoin:miter;" x="969.163636" xlink:href="#m7b8691ebf0" y="218.482842"/>
     <use style="stroke:#000000;stroke-linejoin:miter;" x="988.768379" xlink:href="#m7b8691ebf0" y="218.482842"/>
     <use style="stroke:#000000;stroke-linejoin:miter;" x="1008.373123" xlink:href="#m7b8691ebf0" y="209.855098"/>
     <use style="stroke:#000000;stroke-linejoin:miter;" x="1027.977866" xlink:href="#m7b8691ebf0" y="208.927384"/>
    </g>
   </g>
   <g id="patch_18">
    <path d="M 842.713043 252 
L 842.713043 34.56 
" style="fill:none;stroke:#000000;stroke-linecap:square;stroke-linejoin:miter;stroke-width:0.8;"/>
   </g>
   <g id="patch_19">
    <path d="M 1036.8 252 
L 1036.8 34.56 
" style="fill:none;stroke:#000000;stroke-linecap:square;stroke-linejoin:miter;stroke-width:0.8;"/>
   </g>
   <g id="patch_20">
    <path d="M 842.713043 252 
L 1036.8 252 
" style="fill:none;stroke:#000000;stroke-linecap:square;stroke-linejoin:miter;stroke-width:0.8;"/>
   </g>
   <g id="patch_21">
    <path d="M 842.713043 34.56 
L 1036.8 34.56 
" style="fill:none;stroke:#000000;stroke-linecap:square;stroke-linejoin:miter;stroke-width:0.8;"/>
   </g>
   <g id="text_57">
    <!-- N = 4 -->
    <g transform="translate(915.749584 28.56)scale(0.168 -0.168)">
     <use xlink:href="#DejaVuSans-4e"/>
     <use x="74.804688" xlink:href="#DejaVuSans-20"/>
     <use x="106.591797" xlink:href="#DejaVuSans-3d"/>
     <use x="190.380859" xlink:href="#DejaVuSans-20"/>
     <use x="222.167969" xlink:href="#DejaVuSans-34"/>
    </g>
   </g>
  </g>
 </g>
 <defs>
  <clipPath id="p52c9c778a7">
   <rect height="217.44" width="194.086957" x="144" y="34.56"/>
  </clipPath>
  <clipPath id="pe3c6602f8c">
   <rect height="217.44" width="194.086957" x="376.904348" y="34.56"/>
  </clipPath>
  <clipPath id="pd528c0e3b0">
   <rect height="217.44" width="194.086957" x="609.808696" y="34.56"/>
  </clipPath>
  <clipPath id="pf584ded16a">
   <rect height="217.44" width="194.086957" x="842.713043" y="34.56"/>
  </clipPath>
 </defs>
</svg>
